<svg width="268" height="47" viewBox="0 0 268 47" fill="none" xmlns="http://www.w3.org/2000/svg">
<path d="M16.5898 7.17114L29.8837 13.9717L25.1766 17.7087L16.314 13.175L16.5898 7.17114Z" fill="#FF002E"/>
<path d="M1.35547 14.1218L14.4801 7.00009L14.9018 12.9955L6.15207 17.7433L1.35547 14.1218Z" fill="#3F8CFF"/>
<path d="M31.1953 16.0767V31.009L25.7246 28.5203V18.5654L31.1953 16.0767Z" fill="#3F8CFF"/>
<path d="M0 31.009L0 16.0767L5.47072 18.5654L5.47072 28.5203L0 31.009Z" fill="#00DB3A"/>
<path d="M14.168 40.082L1.16742 32.7362L6.02544 29.1975L14.6925 34.0948L14.168 40.082Z" fill="#3F8CFF"/>
<path d="M29.9141 33.3088L16.7563 40.3692L16.3626 34.3719L25.1344 29.665L29.9141 33.3088Z" fill="#FFC90A"/>
<path d="M15.5823 13.6445L24.7773 18.608V28.5349L15.5823 33.4983L6.38731 28.5349L6.38731 18.608L15.5823 13.6445Z" fill="#292931"/>
<path d="M48.309 9.60578H38.6927V34H48.309C55.4152 34 60.7536 28.7676 60.7536 21.8029C60.7536 14.8382 55.4152 9.60578 48.309 9.60578ZM48.1676 28.8383H44.1726V14.7675H48.1676C52.1626 14.7675 55.1323 17.8079 55.1323 21.8029C55.1323 25.7979 52.1626 28.8383 48.1676 28.8383ZM73.9646 15.6867C72.0202 15.6867 70.3585 16.5352 69.0858 18.02V15.9695H63.9241V34H69.0858V25.5858C69.0858 22.7928 70.8181 20.9897 73.9646 20.9897H74.7424V15.6867H73.9646ZM85.6364 34.4242C91.187 34.4242 95.3588 30.3585 95.3588 24.9847C95.3588 19.6109 91.187 15.5452 85.6364 15.5452C80.0859 15.5452 75.9141 19.6109 75.9141 24.9847C75.9141 30.3585 80.0859 34.4242 85.6364 34.4242ZM85.6364 29.4393C83.0909 29.4393 81.2172 27.5302 81.2172 24.9847C81.2172 22.4393 83.0909 20.5301 85.6364 20.5301C88.1819 20.5301 90.0557 22.4393 90.0557 24.9847C90.0557 27.5302 88.1819 29.4393 85.6364 29.4393ZM109.021 15.5452C106.829 15.5452 104.955 16.3584 103.577 17.7725V15.9695H98.4149V40.7172H103.577V32.1969C104.955 33.6111 106.829 34.4242 109.021 34.4242C114.006 34.4242 117.718 30.3585 117.718 24.9847C117.718 19.6109 114.006 15.5452 109.021 15.5452ZM107.996 29.4393C105.45 29.4393 103.577 27.5302 103.577 24.9847C103.577 22.4393 105.45 20.5301 107.996 20.5301C110.541 20.5301 112.415 22.4393 112.415 24.9847C112.415 27.5302 110.541 29.4393 107.996 29.4393ZM129.484 34.4242C135.034 34.4242 139.206 30.3585 139.206 24.9847C139.206 19.6109 135.034 15.5452 129.484 15.5452C123.933 15.5452 119.761 19.6109 119.761 24.9847C119.761 30.3585 123.933 34.4242 129.484 34.4242ZM129.484 29.4393C126.938 29.4393 125.064 27.5302 125.064 24.9847C125.064 22.4393 126.938 20.5301 129.484 20.5301C132.029 20.5301 133.903 22.4393 133.903 24.9847C133.903 27.5302 132.029 29.4393 129.484 29.4393ZM150.464 34.4242C155.626 34.4242 158.985 31.3838 158.985 26.7878V15.9695H153.823V26.0807C153.823 28.0959 152.479 29.4393 150.464 29.4393C148.449 29.4393 147.106 28.0959 147.106 26.0807V15.9695H141.944V26.7878C141.944 31.3838 145.338 34.4242 150.464 34.4242ZM174.12 20.6716V15.9695H169.488V11.5149H164.327V15.9695H161.604V20.6716H164.327V28.1312C164.327 31.8434 166.271 34.4242 170.655 34.4242C172.034 34.4242 173.059 34.1768 174.12 33.6465V28.803C173.448 29.1565 172.67 29.4393 171.751 29.4393C170.231 29.4393 169.488 28.6616 169.488 27.2828V20.6716H174.12Z" fill="#FF002E"/>
<path d="M184.823 35.256C190.091 35.256 194.581 32.3217 195.182 28.0085C195.959 22.564 189.631 20.9377 187.404 20.4427C185.141 19.9831 182.348 19.0639 182.666 16.872C182.914 15.0336 185.07 13.7962 187.757 13.7962C190.303 13.7962 192.636 14.8568 193.767 16.2356L196.172 13.0538C194.687 11.2861 191.894 10.0133 188.358 10.0133C183.02 10.0133 178.919 12.8063 178.353 17.0134C177.752 21.3266 181.358 23.4478 185.636 24.4731C188.04 25.0034 191.187 25.7812 190.833 28.1852C190.55 30.1651 188.111 31.4732 185.353 31.4732C182.49 31.4732 179.732 30.1297 178.106 28.2206L175.489 31.4378C177.54 33.7358 181.111 35.256 184.823 35.256ZM204.901 20.4074H209.957L210.487 16.8013H205.396L206.068 12.1346H202.108L201.436 16.8013H198.396L197.901 20.4074H200.941L199.633 29.564C199.138 33.0641 200.694 35.256 204.583 35.256C205.891 35.256 206.916 35.0086 207.977 34.5136L208.507 30.8014C207.729 31.155 206.916 31.4378 205.962 31.4378C204.265 31.4378 203.451 30.6247 203.699 28.9277L204.901 20.4074ZM219.417 35.256C224.897 35.256 229.67 31.1903 230.412 25.8165C231.155 20.4427 227.584 16.377 222.104 16.377C216.589 16.377 211.852 20.4427 211.109 25.8165C210.367 31.1903 213.902 35.256 219.417 35.256ZM219.948 31.4378C216.766 31.4378 214.751 28.9984 215.175 25.8165C215.634 22.6347 218.357 20.1953 221.539 20.1953C224.756 20.1953 226.771 22.6347 226.311 25.8165C225.887 28.9984 223.165 31.4378 219.948 31.4378ZM244.88 16.5184C242.511 16.5184 240.46 17.5791 238.834 19.4528L239.223 16.8013H235.263L232.718 34.8318H236.677L237.915 25.9579C238.41 22.7054 240.814 20.5841 244.314 20.5841H244.986L245.551 16.5184H244.88ZM256.35 16.377C250.941 16.377 246.274 20.4074 245.496 25.7458C244.754 31.155 248.395 35.256 254.123 35.256C257.517 35.256 260.699 33.8065 262.89 31.5085L260.522 29.2105C259.284 30.554 257.128 31.6853 254.724 31.6853C251.789 31.6853 249.845 29.9883 249.527 27.4075H264.163C264.305 26.9125 264.411 26.3468 264.481 25.8519C265.259 20.4074 261.759 16.377 256.35 16.377ZM255.82 19.9478C258.401 19.9478 260.239 21.6094 260.486 24.1549H249.951C250.941 21.6448 253.239 19.9478 255.82 19.9478Z" fill="white"/>
</svg>
