<svg width="10" height="14" viewBox="0 0 10 14" fill="none" xmlns="http://www.w3.org/2000/svg">
<path fill-rule="evenodd" clip-rule="evenodd" d="M0.605623 1.20409C0.527526 1.26305 0.501853 1.34008 0.509807 1.49158C0.512099 1.5354 1.08228 2.24301 2.81902 4.35739L5.12521 7.16501L2.82079 9.97212C0.977004 12.2181 0.513832 12.7942 0.503644 12.8543C0.478164 13.0047 0.590138 13.166 0.719967 13.166C0.752438 13.166 0.808849 13.137 0.851817 13.0981C0.893129 13.0608 1.98545 11.7395 3.27921 10.162C5.01661 8.04356 5.63388 7.27699 5.64064 7.22938C5.64568 7.19392 5.64568 7.1359 5.64064 7.10045C5.63388 7.05282 5.00966 6.27802 3.25032 4.1335C1.94067 2.53713 0.845751 1.21589 0.81715 1.19741C0.748837 1.1533 0.669584 1.1558 0.605623 1.20409ZM4.47825 1.19891C4.37744 1.26561 4.33532 1.42421 4.38599 1.5463C4.39768 1.57445 5.43548 2.85013 6.69222 4.38111L8.97719 7.16473L6.67096 9.9724L4.36475 12.7801V12.8892C4.36475 13.075 4.49808 13.2046 4.63752 13.1542C4.70218 13.1309 9.4463 7.35986 9.48117 7.26211C9.49835 7.21398 9.50438 7.15491 9.49674 7.10974C9.48688 7.05141 8.98634 6.42917 7.10266 4.13352C5.79277 2.53718 4.69765 1.21593 4.66905 1.19744C4.60419 1.1555 4.54315 1.15597 4.47825 1.19891Z" stroke="#2454FF" stroke-width="0.8"/>
</svg>
