<svg width="22" height="22" viewBox="0 0 22 22" fill="none" xmlns="http://www.w3.org/2000/svg">
<g clip-path="url(#clip0_640_422)">
<path d="M4.125 20.625H12.375C12.7396 20.6246 13.0891 20.4797 13.3469 20.2219C13.6047 19.9641 13.7496 19.6146 13.75 19.25V17.1875H12.375V19.25H4.125V2.75H12.375V4.8125H13.75V2.75C13.7496 2.38544 13.6047 2.03591 13.3469 1.77813C13.0891 1.52035 12.7396 1.37536 12.375 1.375H4.125C3.76044 1.37536 3.41091 1.52035 3.15313 1.77813C2.89535 2.03591 2.75036 2.38544 2.75 2.75V19.25C2.75036 19.6146 2.89535 19.9641 3.15313 20.2219C3.41091 20.4797 3.76044 20.6246 4.125 20.625Z" fill="white"/>
<path d="M17.1529 14.1529L19.6183 11.6875H9.875V10.3125H19.6183L17.1529 7.84712L18.125 6.875L22.25 11L18.125 15.125L17.1529 14.1529Z" fill="white"/>
</g>
<defs>
<clipPath id="clip0_640_422">
<rect width="22" height="22" fill="white"/>
</clipPath>
</defs>
</svg>
