<svg width="22" height="22" viewBox="0 0 22 22" fill="none" xmlns="http://www.w3.org/2000/svg">
<path d="M18.5638 11.5226V11.0001V10.4707L19.8838 9.31572C20.1272 9.10126 20.2868 8.80768 20.3346 8.48687C20.3824 8.16607 20.3153 7.83869 20.1451 7.5626L18.5226 4.8126C18.402 4.60378 18.2287 4.43033 18.0199 4.30966C17.8112 4.18899 17.5743 4.12534 17.3332 4.1251C17.1838 4.12395 17.0352 4.14717 16.8932 4.19385L15.2226 4.7576C14.9341 4.56593 14.6333 4.39367 14.322 4.24197L13.9713 2.50947C13.9085 2.19295 13.7363 1.90862 13.4849 1.70627C13.2335 1.50391 12.919 1.39641 12.5963 1.4026H9.37883C9.05619 1.39641 8.74165 1.50391 8.49027 1.70627C8.2389 1.90862 8.0667 2.19295 8.00383 2.50947L7.65321 4.24197C7.33966 4.39363 7.0365 4.56589 6.74571 4.7576L5.10946 4.16635C4.96598 4.12896 4.81739 4.11503 4.66946 4.1251C4.42833 4.12534 4.19152 4.18899 3.98276 4.30966C3.774 4.43033 3.60065 4.60378 3.48008 4.8126L1.85758 7.5626C1.69711 7.83828 1.63748 8.16117 1.6889 8.47598C1.74033 8.79079 1.89961 9.07793 2.13946 9.28822L3.43883 10.4776V11.5295L2.13946 12.6845C1.89283 12.8962 1.7292 13.1885 1.67759 13.5094C1.62599 13.8304 1.68976 14.1592 1.85758 14.4376L3.48008 17.1876C3.60065 17.3964 3.774 17.5699 3.98276 17.6905C4.19152 17.8112 4.42833 17.8748 4.66946 17.8751C4.81889 17.8762 4.9675 17.853 5.10946 17.8063L6.78008 17.2426C7.06852 17.4343 7.36939 17.6065 7.68071 17.7582L8.03133 19.4907C8.0942 19.8072 8.2664 20.0916 8.51777 20.2939C8.76915 20.4963 9.08369 20.6038 9.40633 20.5976H12.6513C12.974 20.6038 13.2885 20.4963 13.5399 20.2939C13.7913 20.0916 13.9635 19.8072 14.0263 19.4907L14.377 17.7582C14.6905 17.6066 14.9937 17.4343 15.2845 17.2426L16.9482 17.8063C17.0902 17.853 17.2388 17.8762 17.3882 17.8751C17.6293 17.8748 17.8662 17.8112 18.0749 17.6905C18.2837 17.5699 18.457 17.3964 18.5776 17.1876L20.1451 14.4376C20.3056 14.1619 20.3652 13.839 20.3138 13.5242C20.2623 13.2094 20.1031 12.9223 19.8632 12.712L18.5638 11.5226ZM17.3332 16.5001L14.9751 15.7026C14.4231 16.1702 13.7922 16.5357 13.112 16.782L12.6238 19.2501H9.37883L8.89071 16.8095C8.21587 16.5562 7.58839 16.1913 7.03446 15.7301L4.66946 16.5001L3.04696 13.7501L4.91696 12.1001C4.78984 11.3884 4.78984 10.6599 4.91696 9.94822L3.04696 8.2501L4.66946 5.5001L7.02758 6.2976C7.5796 5.83002 8.2105 5.46452 8.89071 5.21822L9.37883 2.7501H12.6238L13.112 5.19072C13.7868 5.44401 14.4143 5.80888 14.9682 6.2701L17.3332 5.5001L18.9557 8.2501L17.0857 9.9001C17.2128 10.6118 17.2128 11.3403 17.0857 12.052L18.9557 13.7501L17.3332 16.5001Z" fill="white"/>
<path d="M11 15.125C10.1842 15.125 9.38663 14.8831 8.70827 14.4298C8.02992 13.9766 7.50121 13.3323 7.189 12.5786C6.87679 11.8248 6.7951 10.9954 6.95426 10.1953C7.11343 9.39508 7.50629 8.66008 8.08319 8.08319C8.66008 7.50629 9.39508 7.11343 10.1953 6.95426C10.9954 6.7951 11.8248 6.87679 12.5786 7.189C13.3323 7.50121 13.9766 8.02992 14.4298 8.70827C14.8831 9.38663 15.125 10.1842 15.125 11C15.1305 11.5432 15.0276 12.0821 14.8222 12.5851C14.6169 13.088 14.3133 13.545 13.9291 13.9291C13.545 14.3133 13.088 14.6169 12.5851 14.8222C12.0821 15.0276 11.5432 15.1305 11 15.125V15.125ZM11 8.25C10.6366 8.24153 10.2752 8.30688 9.93769 8.44208C9.60021 8.57729 9.29367 8.77954 9.03661 9.03661C8.77954 9.29367 8.57729 9.60021 8.44208 9.93769C8.30688 10.2752 8.24153 10.6366 8.25 11C8.24153 11.3635 8.30688 11.7248 8.44208 12.0623C8.57729 12.3998 8.77954 12.7063 9.03661 12.9634C9.29367 13.2205 9.60021 13.4227 9.93769 13.5579C10.2752 13.6931 10.6366 13.7585 11 13.75C11.3635 13.7585 11.7248 13.6931 12.0623 13.5579C12.3998 13.4227 12.7063 13.2205 12.9634 12.9634C13.2205 12.7063 13.4227 12.3998 13.5579 12.0623C13.6931 11.7248 13.7585 11.3635 13.75 11C13.7585 10.6366 13.6931 10.2752 13.5579 9.93769C13.4227 9.60021 13.2205 9.29367 12.9634 9.03661C12.7063 8.77954 12.3998 8.57729 12.0623 8.44208C11.7248 8.30688 11.3635 8.24153 11 8.25Z" fill="white"/>
</svg>
