<svg width="20" height="20" viewBox="0 0 20 20" fill="none" xmlns="http://www.w3.org/2000/svg">
<path d="M5 9.67285V15.0006H10.3278L9.21667 13.8895H6.11111V10.784L5 9.67285Z" fill="white"/>
<path d="M19.3705 17.9383L17.7761 16.3217V17.7772H2.2205V15.4717H3.33161V14.5828H2.2205V10.8883H3.33161V9.99943H2.2205V6.44388H3.33161V5.55499H2.2205V2.44943L11.0761 11.255V9.68832L2.05938 0.7161C1.98168 0.63775 1.8824 0.584317 1.77421 0.562611C1.66601 0.540906 1.55381 0.551912 1.45189 0.594227C1.34998 0.636542 1.26298 0.708248 1.20198 0.800204C1.14098 0.892159 1.10874 1.0002 1.10938 1.11054V18.3328C1.10938 18.4801 1.16792 18.6214 1.2721 18.7256C1.37629 18.8298 1.5176 18.8883 1.66494 18.8883H18.9761C19.0864 18.889 19.1944 18.8567 19.2864 18.7957C19.3783 18.7347 19.4501 18.6477 19.4924 18.5458C19.5347 18.4439 19.5457 18.3317 19.524 18.2235C19.5023 18.1153 19.4488 18.016 19.3705 17.9383Z" fill="white"/>
<path d="M13.3338 16.6677H15.556C15.8507 16.6677 16.1333 16.5506 16.3417 16.3423C16.55 16.1339 16.6671 15.8513 16.6671 15.5566V4.83437L15.3893 2.48437C15.2905 2.31316 15.1478 2.17142 14.9759 2.07376C14.804 1.9761 14.6092 1.92607 14.4115 1.92882C14.2094 1.93042 14.0115 1.98714 13.8392 2.09287C13.6669 2.1986 13.5267 2.34932 13.4338 2.52882L12.2227 4.84549V15.5566C12.2227 15.8513 12.3397 16.1339 12.5481 16.3423C12.7565 16.5506 13.0391 16.6677 13.3338 16.6677ZM13.3338 5.11215L14.4115 3.01771L15.556 5.11771V13.3344H13.3338V5.11215ZM13.3338 14.2399H15.556V15.5955H13.3338V14.2399Z" fill="white"/>
</svg>
