<svg width="20" height="15" viewBox="0 0 20 15" fill="none" xmlns="http://www.w3.org/2000/svg">
<g clip-path="url(#clip0_2191_444)">
<path d="M19.4802 3.26568L13.7625 0.608895C12.9364 1.40993 11.5211 1.88281 9.99798 1.88281C8.47482 1.88281 7.05957 1.40993 6.23349 0.608895L0.513201 3.26687L2.27254 6.56851C2.27327 6.56883 2.27418 6.56918 2.27528 6.56953C2.28394 6.57224 2.29207 6.57114 2.29734 6.5687L2.29884 6.56801L4.06718 5.75668L19.4802 3.26568ZM19.4802 3.26568L17.7157 6.56835C17.7153 6.5685 17.7149 6.56865 17.7144 6.5688C17.7079 6.57084 17.7015 6.5701 17.6968 6.56784L17.6968 6.5678L17.6909 6.56508L15.9225 5.75375L19.4802 3.26568ZM5.49485 6.63281C5.49485 5.87055 4.68418 5.47326 4.06759 5.75649L15.9221 5.75356C15.3033 5.46929 14.4949 5.87292 14.4949 6.62988V14.0625C14.4949 14.275 14.3027 14.5 13.9949 14.5H5.99485C5.68698 14.5 5.49485 14.275 5.49485 14.0625V6.63281Z" stroke="white"/>
</g>
<defs>
<clipPath id="clip0_2191_444">
<rect width="20" height="15" fill="white"/>
</clipPath>
</defs>
</svg>
