<svg width="22" height="22" viewBox="0 0 22 22" fill="none" xmlns="http://www.w3.org/2000/svg">
<path d="M14.668 1.83325C12.138 1.83325 10.0846 3.88659 10.0846 6.41658C10.0846 8.94659 12.138 10.9999 14.668 10.9999C17.198 10.9999 19.2513 8.94659 19.2513 6.41658C19.2513 3.88659 17.198 1.83325 14.668 1.83325ZM14.668 9.16658C13.1463 9.16658 11.918 7.93825 11.918 6.41658C11.918 4.89492 13.1463 3.66659 14.668 3.66659C16.1896 3.66659 17.418 4.89492 17.418 6.41658C17.418 7.93825 16.1896 9.16658 14.668 9.16658ZM17.418 14.6666H15.5846C15.5846 13.5666 14.8971 12.5766 13.8705 12.1916L8.2238 10.0833H0.917969V20.1666H6.41797V18.8466L12.8346 20.6249L20.168 18.3333V17.4166C20.168 15.8949 18.9396 14.6666 17.418 14.6666ZM4.58464 18.3333H2.7513V11.9166H4.58464V18.3333ZM12.8071 18.7091L6.41797 16.9583V11.9166H7.8938L13.2288 13.9058C13.5405 14.0249 13.7513 14.3274 13.7513 14.6666C13.7513 14.6666 11.918 14.6208 11.643 14.5291L9.4613 13.8049L8.8838 15.5466L11.0655 16.2708C11.533 16.4266 12.0188 16.4999 12.5138 16.4999H17.418C17.7755 16.4999 18.0963 16.7199 18.243 17.0224L12.8071 18.7091Z" fill="white" stroke="#161C33"/>
</svg>
