<svg width="188" height="33" viewBox="0 0 188 33" fill="none" xmlns="http://www.w3.org/2000/svg">
<path d="M11.647 5.03516L20.981 9.81001L17.676 12.4339L11.4533 9.25064L11.647 5.03516Z" fill="#FF002E"/>
<path d="M0.950195 9.91602L10.1654 4.91565L10.4615 9.12518L4.31803 12.4588L0.950195 9.91602Z" fill="#3F8CFF"/>
<path d="M21.9019 11.2891V21.7735L18.0607 20.0261V13.0365L21.9019 11.2891Z" fill="#3F8CFF"/>
<path d="M0 21.7734L0 11.289L3.84114 13.0364L3.84114 20.026L0 21.7734Z" fill="#00DB3A"/>
<path d="M9.94678 28.1445L0.818733 22.9868L4.22968 20.5022L10.315 23.9407L9.94678 28.1445Z" fill="#3F8CFF"/>
<path d="M21.0029 23.3887L11.7645 28.346L11.4881 24.1351L17.647 20.8302L21.0029 23.3887Z" fill="#FFC90A"/>
<path d="M10.9421 9.58203L17.3982 13.067V20.037L10.9421 23.5219L4.48606 20.037L4.48606 13.067L10.9421 9.58203Z" fill="#292931"/>
<path d="M33.917 6.87214H27.1652V24H33.917C38.9064 24 42.6547 20.3262 42.6547 15.4361C42.6547 10.5459 38.9064 6.87214 33.917 6.87214ZM33.8177 20.3758H31.0127V10.4963H33.8177C36.6227 10.4963 38.7079 12.6311 38.7079 15.4361C38.7079 18.2411 36.6227 20.3758 33.8177 20.3758ZM51.9306 11.1417C50.5653 11.1417 49.3986 11.7374 48.505 12.78V11.3403H44.8808V24H48.505V18.0921C48.505 16.1311 49.7213 14.8651 51.9306 14.8651H52.4767V11.1417H51.9306ZM60.1256 24.2979C64.0228 24.2979 66.952 21.4432 66.952 17.6701C66.952 13.897 64.0228 11.0424 60.1256 11.0424C56.2284 11.0424 53.2993 13.897 53.2993 17.6701C53.2993 21.4432 56.2284 24.2979 60.1256 24.2979ZM60.1256 20.7978C58.3384 20.7978 57.0228 19.4574 57.0228 17.6701C57.0228 15.8829 58.3384 14.5424 60.1256 14.5424C61.9129 14.5424 63.2285 15.8829 63.2285 17.6701C63.2285 19.4574 61.9129 20.7978 60.1256 20.7978ZM76.5447 11.0424C75.0057 11.0424 73.69 11.6133 72.7219 12.6063V11.3403H69.0978V28.7164H72.7219V22.734C73.69 23.7269 75.0057 24.2979 76.5447 24.2979C80.0447 24.2979 82.6511 21.4432 82.6511 17.6701C82.6511 13.897 80.0447 11.0424 76.5447 11.0424ZM75.8248 20.7978C74.0376 20.7978 72.7219 19.4574 72.7219 17.6701C72.7219 15.8829 74.0376 14.5424 75.8248 14.5424C77.6121 14.5424 78.9277 15.8829 78.9277 17.6701C78.9277 19.4574 77.6121 20.7978 75.8248 20.7978ZM90.912 24.2979C94.8092 24.2979 97.7383 21.4432 97.7383 17.6701C97.7383 13.897 94.8092 11.0424 90.912 11.0424C87.0147 11.0424 84.0856 13.897 84.0856 17.6701C84.0856 21.4432 87.0147 24.2979 90.912 24.2979ZM90.912 20.7978C89.1247 20.7978 87.8091 19.4574 87.8091 17.6701C87.8091 15.8829 89.1247 14.5424 90.912 14.5424C92.6992 14.5424 94.0148 15.8829 94.0148 17.6701C94.0148 19.4574 92.6992 20.7978 90.912 20.7978ZM105.643 24.2979C109.267 24.2979 111.625 22.1631 111.625 18.9361V11.3403H108.001V18.4397C108.001 19.8546 107.058 20.7978 105.643 20.7978C104.228 20.7978 103.285 19.8546 103.285 18.4397V11.3403H99.6607V18.9361C99.6607 22.1631 102.044 24.2979 105.643 24.2979ZM122.252 14.6417V11.3403H119V8.21258H115.376V11.3403H113.465V14.6417H115.376V19.8794C115.376 22.4858 116.741 24.2979 119.819 24.2979C120.788 24.2979 121.507 24.1241 122.252 23.7518V20.351C121.78 20.5993 121.234 20.7978 120.589 20.7978C119.522 20.7978 119 20.2517 119 19.2836V14.6417H122.252Z" fill="#FF002E"/>
<path d="M129.769 24.8819C133.468 24.8819 136.62 22.8216 137.042 19.7931C137.588 15.9704 133.145 14.8286 131.581 14.481C129.993 14.1583 128.031 13.5129 128.255 11.9739C128.429 10.6831 129.943 9.81431 131.829 9.81431C133.617 9.81431 135.255 10.559 136.049 11.5271L137.737 9.29303C136.695 8.05188 134.734 7.15825 132.251 7.15825C128.503 7.15825 125.624 9.11927 125.226 12.0732C124.805 15.1016 127.336 16.591 130.34 17.3109C132.028 17.6832 134.237 18.2293 133.989 19.9173C133.79 21.3074 132.078 22.2258 130.141 22.2258C128.131 22.2258 126.195 21.2825 125.053 19.9421L123.216 22.201C124.656 23.8145 127.163 24.8819 129.769 24.8819ZM143.866 14.4562H147.416L147.788 11.9243H144.214L144.686 8.64763H141.905L141.434 11.9243H139.299L138.951 14.4562H141.086L140.168 20.8854C139.82 23.3428 140.912 24.8819 143.643 24.8819C144.561 24.8819 145.281 24.7081 146.026 24.3606L146.398 21.7542C145.852 22.0024 145.281 22.201 144.611 22.201C143.42 22.201 142.849 21.63 143.022 20.4385L143.866 14.4562ZM154.059 24.8819C157.906 24.8819 161.257 22.0272 161.779 18.2541C162.3 14.481 159.793 11.6264 155.945 11.6264C152.073 11.6264 148.747 14.481 148.225 18.2541C147.704 22.0272 150.186 24.8819 154.059 24.8819ZM154.431 22.201C152.197 22.201 150.782 20.4882 151.08 18.2541C151.403 16.0201 153.314 14.3073 155.548 14.3073C157.807 14.3073 159.222 16.0201 158.899 18.2541C158.601 20.4882 156.69 22.201 154.431 22.201ZM171.937 11.7257C170.273 11.7257 168.834 12.4704 167.692 13.786L167.965 11.9243H165.185L163.397 24.584H166.178L167.046 18.3534C167.394 16.0697 169.082 14.5803 171.539 14.5803H172.011L172.408 11.7257H171.937ZM179.99 11.6264C176.192 11.6264 172.916 14.4562 172.37 18.2045C171.848 22.0024 174.405 24.8819 178.426 24.8819C180.809 24.8819 183.043 23.8641 184.583 22.2506L182.919 20.6371C182.051 21.5804 180.536 22.3747 178.848 22.3747C176.788 22.3747 175.423 21.1832 175.199 19.3712H185.476C185.575 19.0236 185.65 18.6265 185.7 18.2789C186.246 14.4562 183.788 11.6264 179.99 11.6264ZM179.618 14.1335C181.43 14.1335 182.721 15.3002 182.895 17.0874H175.497C176.192 15.325 177.806 14.1335 179.618 14.1335Z" fill="#292931"/>
</svg>
