<svg width="133" height="16" viewBox="0 0 133 16" fill="none" xmlns="http://www.w3.org/2000/svg">
<path d="M33 6.35862H27.6567L26 1L24.3433 6.35862H19L23.3167 9.66552L21.6833 15L26 11.6931L30.3167 15L28.66 9.64138L33 6.35862Z" fill="#FFCE31"/>
<path d="M8.64247 10.764H6.91347V13H5.65247V10.764H0.595472V9.854L5.24947 3.9H6.65347L2.19447 9.646H5.69147V7.67H6.91347V9.646H8.64247V10.764ZM15.6197 8.97H13.2537V11.297H12.1617V8.97H9.79571V7.943H12.1617V5.603H13.2537V7.943H15.6197V8.97Z" fill="black"/>
<path d="M38.9877 14.328C38.5397 13.592 38.1957 12.748 37.9557 11.796C37.7157 10.836 37.5957 9.808 37.5957 8.712C37.5957 7.616 37.7157 6.588 37.9557 5.628C38.1957 4.66 38.5397 3.816 38.9877 3.096H39.8037C39.3317 3.904 38.9837 4.772 38.7597 5.7C38.5437 6.628 38.4357 7.632 38.4357 8.712C38.4357 9.792 38.5437 10.796 38.7597 11.724C38.9837 12.652 39.3317 13.52 39.8037 14.328H38.9877ZM46.3895 3.6V12H45.5255V4.368H43.5455V3.6H46.3895ZM54.1334 11.232V12H48.2414V11.388L51.7334 7.968C52.1734 7.536 52.4694 7.164 52.6214 6.852C52.7814 6.532 52.8614 6.212 52.8614 5.892C52.8614 5.396 52.6894 5.012 52.3454 4.74C52.0094 4.46 51.5254 4.32 50.8934 4.32C49.9094 4.32 49.1454 4.632 48.6014 5.256L47.9894 4.728C48.3174 4.344 48.7334 4.048 49.2374 3.84C49.7494 3.632 50.3254 3.528 50.9654 3.528C51.8214 3.528 52.4974 3.732 52.9934 4.14C53.4974 4.54 53.7494 5.092 53.7494 5.796C53.7494 6.228 53.6534 6.644 53.4614 7.044C53.2694 7.444 52.9054 7.904 52.3694 8.424L49.5134 11.232H54.1334ZM58.5189 12.072C57.8709 12.072 57.2909 11.9 56.7789 11.556C56.2749 11.212 55.8789 10.72 55.5909 10.08C55.3109 9.432 55.1709 8.672 55.1709 7.8C55.1709 6.928 55.3109 6.172 55.5909 5.532C55.8789 4.884 56.2749 4.388 56.7789 4.044C57.2909 3.7 57.8709 3.528 58.5189 3.528C59.1669 3.528 59.7429 3.7 60.2469 4.044C60.7589 4.388 61.1589 4.884 61.4469 5.532C61.7349 6.172 61.8789 6.928 61.8789 7.8C61.8789 8.672 61.7349 9.432 61.4469 10.08C61.1589 10.72 60.7589 11.212 60.2469 11.556C59.7429 11.9 59.1669 12.072 58.5189 12.072ZM58.5189 11.28C59.0069 11.28 59.4349 11.144 59.8029 10.872C60.1789 10.6 60.4709 10.204 60.6789 9.684C60.8869 9.164 60.9909 8.536 60.9909 7.8C60.9909 7.064 60.8869 6.436 60.6789 5.916C60.4709 5.396 60.1789 5 59.8029 4.728C59.4349 4.456 59.0069 4.32 58.5189 4.32C58.0309 4.32 57.5989 4.456 57.2229 4.728C56.8549 5 56.5669 5.396 56.3589 5.916C56.1509 6.436 56.0469 7.064 56.0469 7.8C56.0469 8.536 56.1509 9.164 56.3589 9.684C56.5669 10.204 56.8549 10.6 57.2229 10.872C57.5989 11.144 58.0309 11.28 58.5189 11.28ZM66.4642 12.072C65.8162 12.072 65.2362 11.9 64.7242 11.556C64.2202 11.212 63.8242 10.72 63.5362 10.08C63.2562 9.432 63.1162 8.672 63.1162 7.8C63.1162 6.928 63.2562 6.172 63.5362 5.532C63.8242 4.884 64.2202 4.388 64.7242 4.044C65.2362 3.7 65.8162 3.528 66.4642 3.528C67.1122 3.528 67.6882 3.7 68.1922 4.044C68.7042 4.388 69.1042 4.884 69.3922 5.532C69.6802 6.172 69.8242 6.928 69.8242 7.8C69.8242 8.672 69.6802 9.432 69.3922 10.08C69.1042 10.72 68.7042 11.212 68.1922 11.556C67.6882 11.9 67.1122 12.072 66.4642 12.072ZM66.4642 11.28C66.9522 11.28 67.3802 11.144 67.7482 10.872C68.1242 10.6 68.4162 10.204 68.6242 9.684C68.8322 9.164 68.9362 8.536 68.9362 7.8C68.9362 7.064 68.8322 6.436 68.6242 5.916C68.4162 5.396 68.1242 5 67.7482 4.728C67.3802 4.456 66.9522 4.32 66.4642 4.32C65.9762 4.32 65.5442 4.456 65.1682 4.728C64.8002 5 64.5122 5.396 64.3042 5.916C64.0962 6.436 63.9922 7.064 63.9922 7.8C63.9922 8.536 64.0962 9.164 64.3042 9.684C64.5122 10.204 64.8002 10.6 65.1682 10.872C65.5442 11.144 65.9762 11.28 66.4642 11.28ZM76.5912 8.16H74.3593V10.344H73.6033V8.16H71.3713V7.452H73.6033V5.256H74.3593V7.452H76.5912V8.16ZM82.5782 6.924C82.7782 6.5 83.0742 6.18 83.4662 5.964C83.8662 5.748 84.3582 5.64 84.9422 5.64V6.468L84.7382 6.456C84.0742 6.456 83.5542 6.66 83.1782 7.068C82.8022 7.476 82.6142 8.048 82.6142 8.784V12H81.7622V5.688H82.5782V6.924ZM91.9223 9.108H86.6423C86.6903 9.764 86.9423 10.296 87.3983 10.704C87.8543 11.104 88.4303 11.304 89.1263 11.304C89.5183 11.304 89.8783 11.236 90.2063 11.1C90.5343 10.956 90.8183 10.748 91.0583 10.476L91.5383 11.028C91.2583 11.364 90.9063 11.62 90.4823 11.796C90.0663 11.972 89.6063 12.06 89.1023 12.06C88.4543 12.06 87.8783 11.924 87.3743 11.652C86.8783 11.372 86.4903 10.988 86.2103 10.5C85.9303 10.012 85.7903 9.46 85.7903 8.844C85.7903 8.228 85.9223 7.676 86.1863 7.188C86.4583 6.7 86.8263 6.32 87.2903 6.048C87.7623 5.776 88.2903 5.64 88.8743 5.64C89.4583 5.64 89.9823 5.776 90.4463 6.048C90.9103 6.32 91.2743 6.7 91.5383 7.188C91.8023 7.668 91.9343 8.22 91.9343 8.844L91.9223 9.108ZM88.8743 6.372C88.2663 6.372 87.7543 6.568 87.3383 6.96C86.9303 7.344 86.6983 7.848 86.6423 8.472H91.1183C91.0623 7.848 90.8263 7.344 90.4103 6.96C90.0023 6.568 89.4903 6.372 88.8743 6.372ZM98.8553 5.688L96.0473 12H95.1713L92.3753 5.688H93.2633L95.6273 11.064L98.0153 5.688H98.8553ZM100.055 5.688H100.907V12H100.055V5.688ZM100.487 4.308C100.311 4.308 100.163 4.248 100.043 4.128C99.9232 4.008 99.8632 3.864 99.8632 3.696C99.8632 3.536 99.9232 3.396 100.043 3.276C100.163 3.156 100.311 3.096 100.487 3.096C100.663 3.096 100.811 3.156 100.931 3.276C101.051 3.388 101.111 3.524 101.111 3.684C101.111 3.86 101.051 4.008 100.931 4.128C100.811 4.248 100.663 4.308 100.487 4.308ZM108.774 9.108H103.494C103.542 9.764 103.794 10.296 104.25 10.704C104.706 11.104 105.282 11.304 105.978 11.304C106.37 11.304 106.73 11.236 107.058 11.1C107.386 10.956 107.67 10.748 107.91 10.476L108.39 11.028C108.11 11.364 107.758 11.62 107.334 11.796C106.918 11.972 106.458 12.06 105.954 12.06C105.306 12.06 104.73 11.924 104.226 11.652C103.73 11.372 103.342 10.988 103.062 10.5C102.782 10.012 102.642 9.46 102.642 8.844C102.642 8.228 102.774 7.676 103.038 7.188C103.31 6.7 103.678 6.32 104.142 6.048C104.614 5.776 105.142 5.64 105.726 5.64C106.31 5.64 106.834 5.776 107.298 6.048C107.762 6.32 108.126 6.7 108.39 7.188C108.654 7.668 108.786 8.22 108.786 8.844L108.774 9.108ZM105.726 6.372C105.118 6.372 104.606 6.568 104.19 6.96C103.782 7.344 103.55 7.848 103.494 8.472H107.97C107.914 7.848 107.678 7.344 107.262 6.96C106.854 6.568 106.342 6.372 105.726 6.372ZM119.667 5.688L117.279 12H116.475L114.483 6.828L112.491 12H111.687L109.311 5.688H110.127L112.107 11.052L114.135 5.688H114.867L116.883 11.052L118.887 5.688H119.667ZM122.571 12.06C122.059 12.06 121.567 11.988 121.095 11.844C120.631 11.692 120.267 11.504 120.003 11.28L120.387 10.608C120.651 10.816 120.983 10.988 121.383 11.124C121.783 11.252 122.199 11.316 122.631 11.316C123.207 11.316 123.631 11.228 123.903 11.052C124.183 10.868 124.323 10.612 124.323 10.284C124.323 10.052 124.247 9.872 124.095 9.744C123.943 9.608 123.751 9.508 123.519 9.444C123.287 9.372 122.979 9.304 122.595 9.24C122.083 9.144 121.671 9.048 121.359 8.952C121.047 8.848 120.779 8.676 120.555 8.436C120.339 8.196 120.231 7.864 120.231 7.44C120.231 6.912 120.451 6.48 120.891 6.144C121.331 5.808 121.943 5.64 122.727 5.64C123.135 5.64 123.543 5.696 123.951 5.808C124.359 5.912 124.695 6.052 124.959 6.228L124.587 6.912C124.067 6.552 123.447 6.372 122.727 6.372C122.183 6.372 121.771 6.468 121.491 6.66C121.219 6.852 121.083 7.104 121.083 7.416C121.083 7.656 121.159 7.848 121.311 7.992C121.471 8.136 121.667 8.244 121.899 8.316C122.131 8.38 122.451 8.448 122.859 8.52C123.363 8.616 123.767 8.712 124.071 8.808C124.375 8.904 124.635 9.068 124.851 9.3C125.067 9.532 125.175 9.852 125.175 10.26C125.175 10.812 124.943 11.252 124.479 11.58C124.023 11.9 123.387 12.06 122.571 12.06ZM129.183 14.328C129.655 13.52 130.003 12.656 130.227 11.736C130.451 10.808 130.563 9.8 130.563 8.712C130.563 7.624 130.451 6.62 130.227 5.7C130.003 4.772 129.655 3.904 129.183 3.096H129.999C130.447 3.816 130.791 4.66 131.031 5.628C131.279 6.588 131.403 7.616 131.403 8.712C131.403 9.808 131.283 10.836 131.043 11.796C130.803 12.756 130.455 13.6 129.999 14.328H129.183Z" fill="black"/>
</svg>
