<svg width="18" height="18" viewBox="0 0 18 18" fill="none" xmlns="http://www.w3.org/2000/svg">
<path d="M1.5 7.33398V14.834C1.5 15.276 1.67559 15.6999 1.98816 16.0125C2.30072 16.3251 2.72464 16.5006 3.16667 16.5006H14.8333C15.2754 16.5006 15.6993 16.3251 16.0118 16.0125C16.3244 15.6999 16.5 15.276 16.5 14.834V7.33398" stroke="white" stroke-width="1.5"/>
<path d="M11.3604 16.5007V11.5007C11.3604 11.0586 11.1848 10.6347 10.8722 10.3221C10.5596 10.0096 10.1357 9.83398 9.69368 9.83398H8.02702C7.58499 9.83398 7.16107 10.0096 6.84851 10.3221C6.53595 10.6347 6.36035 11.0586 6.36035 11.5007V16.5007" stroke="white" stroke-width="1.5" stroke-miterlimit="16"/>
<path d="M17.1815 6.80333L15.7698 1.8625C15.74 1.75804 15.6769 1.66615 15.5901 1.60075C15.5034 1.53534 15.3977 1.49998 15.289 1.5H11.9165L12.3123 6.25333C12.3183 6.32977 12.3425 6.40366 12.3828 6.46889C12.4231 6.53411 12.4783 6.58877 12.544 6.62833C12.869 6.8225 13.504 7.18083 13.9998 7.33333C14.8465 7.59417 16.0832 7.5 16.7882 7.41333C16.8567 7.40447 16.9225 7.38076 16.9809 7.34386C17.0394 7.30695 17.089 7.25774 17.1265 7.19966C17.1639 7.14158 17.1883 7.07603 17.1978 7.00757C17.2073 6.93912 17.2017 6.86942 17.1815 6.80333Z" stroke="white" stroke-width="1.5"/>
<path d="M10.666 7.33333C11.1393 7.1875 11.7393 6.855 12.0743 6.65667C12.1524 6.61019 12.2158 6.54256 12.2571 6.46161C12.2984 6.38065 12.3159 6.28967 12.3077 6.19917L11.916 1.5H6.08268L5.69102 6.19917C5.68263 6.2898 5.70009 6.38096 5.74139 6.46208C5.78268 6.5432 5.84612 6.61096 5.92435 6.6575C6.25935 6.855 6.85935 7.1875 7.33268 7.33333C8.57685 7.71667 9.42185 7.71667 10.666 7.33333V7.33333Z" stroke="white" stroke-width="1.5"/>
<path d="M2.22882 1.8625L0.817156 6.80417C0.79723 6.87015 0.791904 6.93968 0.801545 7.00793C0.811187 7.07618 0.835567 7.14151 0.872991 7.19939C0.910416 7.25727 0.959989 7.30632 1.01827 7.34312C1.07655 7.37992 1.14214 7.40359 1.21049 7.4125C1.91466 7.5 3.15216 7.59333 3.99882 7.33333C4.49466 7.18083 5.13049 6.8225 5.45466 6.62917C5.52044 6.58953 5.57579 6.53473 5.61609 6.46936C5.65639 6.40398 5.68047 6.32991 5.68632 6.25333L6.08216 1.5H2.70966C2.60101 1.49998 2.49531 1.53534 2.40855 1.60075C2.32179 1.66615 2.2587 1.75804 2.22882 1.8625V1.8625Z" stroke="white" stroke-width="1.5"/>
</svg>
