<?xml version="1.0" encoding="iso-8859-1"?>
<!-- Generator: Adobe Illustrator 18.0.0, SVG Export Plug-In . SVG Version: 6.00 Build 0)  -->
<!DOCTYPE svg PUBLIC "-//W3C//DTD SVG 1.1//EN" "http://www.w3.org/Graphics/SVG/1.1/DTD/svg11.dtd">
<svg version="1.1" id="Capa_1" xmlns="http://www.w3.org/2000/svg" xmlns:xlink="http://www.w3.org/1999/xlink" x="0px" y="0px"
	 viewBox="0 0 296.992 296.992" style="enable-background:new 0 0 296.992 296.992;" xml:space="preserve">
<path d="M246.385,218.528c-10.941-18.639-24.383-28.992-37.848-28.992h-19.375v-22.692c4-5.483,7.972-11.44,10.952-17.416
	c3.121-0.589,6.379-2.302,9.227-5.053c3.596-3.476,6.746-8.521,8.753-14.207c3.645-10.333,3.027-19.828-1.157-25.441
	c0.47-11.434-0.178-42.312-18.822-63.054c-1.622-1.805-3.337-3.472-5.137-5.027c0.172-2.107,0.267-4.365,0.267-6.743
	c0-14.604-4.224-24.027-12.559-28.014c-11.145-5.328-24.81,1.813-32.193,6.737c-7.382-4.925-21.049-12.066-32.19-6.737
	c-8.336,3.985-12.561,13.41-12.561,28.014c0,1.811,0.054,3.54,0.151,5.184c-3.899,2.813-7.37,6.067-10.372,9.759
	C81.78,59.279,77.577,79.413,81.214,103.326c-5.229,5.329-6.347,15.59-2.38,26.844c2.005,5.684,5.092,10.73,8.689,14.206
	c2.952,2.851,6.127,4.587,9.355,5.113c3.142,6.292,7.285,12.556,11.285,18.267v21.78H88.454c-13.467,0-26.912,10.419-37.857,29.178
	c-8.86,15.185-14.585,33.657-14.585,46.991c0,2.92,1.688,5.6,4.331,6.841c39.711,18.642,77.166,24.446,108.379,24.446
	c16.639,0,31.506-1.642,43.991-3.865c38.997-6.942,63.424-20.588,64.444-21.165c2.363-1.337,3.823-3.884,3.823-6.599
	C260.98,252.041,255.252,233.632,246.385,218.528z M148.496,267.584l-31.931-62.854c3.773-0.409,6.598-3.602,6.598-7.485v-14.398
	c8,5.57,15.96,9.056,25.147,9.056c9.475,0,17.853-3.716,25.853-9.595v14.937c0,3.559,2.694,6.534,6.012,7.321L148.496,267.584z
	 M174.189,15.48c2.231,1.066,3.657,5.477,3.94,11.974c-6.862-2.893-14.541-4.592-22.997-5.09
	C161.179,18.033,170.315,13.627,174.189,15.48z M122.798,15.482c3.87-1.861,13.163,2.65,19.227,7.012
	c-8.463,0.609-16.214,2.207-23.155,4.756C119.173,20.867,120.593,16.54,122.798,15.482z M149.163,37.256
	c16,0,28.913,4.858,37.549,14.438c13.271,14.723,15.181,37.692,15.172,49.102c-70.762-1.135-80.019-28.958-80.463-30.665
	c-0.478-3.925-3.868-6.656-7.84-6.43c-3.996,0.217-7.089,3.698-7.089,7.7c0,6.256-5.331,14.188-11.353,20.808
	c-0.929-15.604,2.305-28.528,9.895-37.859c9.1-11.188,24.13-16.938,44.13-17.091V37.256z M103.732,134.247
	c-1.577-0.491-3.259-0.446-4.79,0.104c-1.314-0.909-3.989-3.773-5.902-9.192c-1.694-4.809-1.662-8.422-1.315-10.255
	c0.899-0.263,1.755-0.692,2.516-1.285c1.939-1.51,14.323-11.434,21.738-24.163c1.953,2.108,4.305,4.279,7.136,6.43
	c17.467,13.257,45.151,19.99,82.285,20.015c0.18,2.005-0.018,5.201-1.447,9.255c-1.934,5.476-4.642,8.344-5.942,9.223
	c-1.539-0.483-3.204-0.464-4.748,0.076c-1.96,0.687-3.55,2.152-4.394,4.051c-7.858,17.684-23.107,38.335-40.222,38.335
	c-17.149,0-32.41-20.713-40.268-38.452C107.499,136.403,105.805,134.893,103.732,134.247z M88.454,204.536h11.361l38.951,77.063
	c-25.963-1.094-55.855-6.692-87.406-20.74C53.84,238.994,72.108,204.536,88.454,204.536z M190.071,278.301
	c-9.306,1.657-20.021,2.85-31.858,3.323l38.964-77.089h11.361c7.675,0,16.966,8.146,24.856,21.587
	c6.499,11.073,11.148,24.45,12.263,34.749C237.523,264.793,217.669,273.387,190.071,278.301z"/>
<g>
</g>
<g>
</g>
<g>
</g>
<g>
</g>
<g>
</g>
<g>
</g>
<g>
</g>
<g>
</g>
<g>
</g>
<g>
</g>
<g>
</g>
<g>
</g>
<g>
</g>
<g>
</g>
<g>
</g>
</svg>
