<svg width="34" height="51" viewBox="0 0 34 51" fill="none" xmlns="http://www.w3.org/2000/svg">
<path fill-rule="evenodd" clip-rule="evenodd" d="M13.8603 0.231746C10.7694 0.934002 8.19732 2.33703 6.01426 4.51156C3.7122 6.80419 2.33488 9.39718 1.72066 12.5945C1.16316 15.4966 1.46729 18.4562 2.61107 21.2631C2.89984 21.9715 6.13433 27.2348 9.79899 32.9595C15.6064 42.0313 16.5288 43.368 16.9816 43.368C17.4344 43.368 18.3568 42.0313 24.1642 32.9595C27.8288 27.2348 31.0655 21.9662 31.3568 21.2516C34.358 13.8862 31.2617 5.4086 24.2361 1.755C21.9786 0.580962 20.1589 0.110455 17.5148 0.0172033C15.9822 -0.0369634 14.7151 0.0373831 13.8603 0.231746ZM20.3696 1.95382C24.026 2.81221 27.6612 5.70365 29.3162 9.06963C30.4764 11.4298 30.8443 12.9609 30.8443 15.4307C30.8443 17.5292 30.3563 19.8463 29.6103 21.2899C29.0726 22.3303 17.1068 41.1117 16.9816 41.1117C16.8564 41.1117 4.89053 22.3303 4.35287 21.2899C3.60684 19.8463 3.11887 17.5292 3.11887 15.4307C3.11887 12.9609 3.48677 11.4298 4.64697 9.06963C6.27829 5.75187 9.92248 2.82538 13.4959 1.96359C15.1649 1.56127 18.676 1.55618 20.3696 1.95382ZM16.0219 8.04386C15.5682 8.30238 9.81328 12.9008 7.75755 14.6475C6.73405 15.517 6.53123 15.8029 6.53123 16.3749C6.53123 17.4893 7.21648 17.9502 8.986 18.0263L10.4768 18.0902L10.5354 21.6922C10.577 24.2476 10.67 25.342 10.8553 25.4592C10.9991 25.5501 13.7558 25.6245 16.9816 25.6245C20.2073 25.6245 22.9641 25.5501 23.1078 25.4592C23.2932 25.342 23.3862 24.2476 23.4278 21.6922L23.4864 18.0902L24.9772 18.0263C26.7467 17.9502 27.4319 17.4893 27.4319 16.3749C27.4319 15.8029 27.2291 15.517 26.2056 14.6475C23.8844 12.6754 18.367 8.28177 17.9021 8.03494C17.3175 7.72502 16.5753 7.72842 16.0219 8.04386ZM21.5062 12.8859L25.8324 16.3909L24.1362 16.4537C23.2034 16.4881 22.3157 16.6194 22.1635 16.7452C21.9574 16.9155 21.8869 17.861 21.8869 20.4527V23.9317H20.8205H19.7541V21.7863V19.6409L19.0416 18.9312C18.1386 18.0318 17.3612 17.8315 16.2682 18.2166C14.8736 18.7077 14.5409 19.3696 14.4556 21.8224L14.3824 23.9317H13.2293H12.0763V20.4527C12.0763 17.861 12.0057 16.9155 11.7997 16.7452C11.6474 16.6194 10.7598 16.4881 9.82693 16.4537L8.13078 16.3909L12.5029 12.8386C14.9075 10.8847 16.9436 9.30754 17.0274 9.33367C17.1113 9.3598 19.1267 10.9582 21.5062 12.8859ZM17.8711 20.0349C18.1898 20.3219 18.2612 20.7114 18.2612 22.1591V23.9317L17.1415 23.9321L16.0219 23.9328L16.0922 22.0747C16.1311 21.0528 16.2629 20.0967 16.3851 19.9501C16.6958 19.5771 17.4086 19.6177 17.8711 20.0349ZM6.85114 42.0039C3.29312 42.5228 0.664745 43.8876 0.133056 45.4922C-0.471145 47.3154 0.970578 48.6528 4.69986 49.7293C8.03459 50.6918 11.0136 51 16.9816 51C22.9496 51 25.9286 50.6918 29.2633 49.7293C32.1084 48.9081 33.5431 47.9796 33.9282 46.7102C34.3671 45.2636 32.7522 43.5452 30.1992 42.7418C27.9515 42.0347 24.3845 41.5975 23.9296 41.9735C23.5651 42.2749 23.5099 42.5923 23.7562 42.9727C23.8424 43.1059 24.9831 43.3706 26.2914 43.5611C30.0848 44.1138 32.3372 45.1262 32.3372 46.2786C32.3372 47.0987 29.531 48.2014 25.6191 48.9185C23.8481 49.2431 22.3834 49.3094 16.9816 49.3094C9.963 49.3094 8.05869 49.1112 4.61178 48.0223C1.76544 47.1229 1.10814 46.4445 2.0781 45.4077C2.92053 44.507 4.32749 44.0834 8.98387 43.3285C9.98795 43.1658 10.0502 43.1184 10.0502 42.5183C10.0502 41.9093 10.0076 41.8796 9.0905 41.8492C8.56265 41.8316 7.55494 41.9013 6.85114 42.0039Z" fill="#FF002E"/>
</svg>
