<svg width="74" height="52" viewBox="0 0 74 52" fill="none" xmlns="http://www.w3.org/2000/svg">
<path fill-rule="evenodd" clip-rule="evenodd" d="M56.9707 0.582636C53.4853 1.68063 49.872 5.14263 48.5168 8.6816C47.6672 10.901 47.7086 11.4289 48.7311 11.4289C49.269 11.4289 49.7989 10.7845 50.16 9.6917C50.8124 7.71676 53.5988 4.46022 55.7167 3.19734C56.6766 2.62519 58.3064 2.34744 60.706 2.34744C64.649 2.34744 66.2656 3.03089 68.7474 5.74754C71.2293 8.46419 71.8537 10.2337 71.8537 14.5497C71.8537 18.7045 71.2991 20.3996 69.0867 23.0081C67.9786 24.3152 67.8161 25.9926 68.7978 25.9926C69.6968 25.9926 72.661 21.417 73.3091 19.0291C74.8449 13.3669 73.7387 8.46262 70.0029 4.37335C66.449 0.483288 61.6854 -0.902339 56.9707 0.582636ZM59.8564 10.5187L59.9933 15.3299H63.5571C66.4081 15.3299 67.1209 15.1739 67.1209 14.5497C67.1209 13.9646 66.4371 13.7305 64.3887 13.6135L61.6564 13.4574V9.58247C61.6564 6.03049 61.5756 5.70749 60.688 5.70749C59.7742 5.70749 59.7277 5.97588 59.8564 10.5187ZM16.6155 14.1274C15.8162 15.0022 15.8941 17.411 16.7466 18.1854C17.4812 18.8528 17.4389 18.9069 18.1631 16.3702C18.3551 15.6971 20.5708 15.59 34.311 15.59H50.2365L50.3629 29.2434C50.4717 40.9714 50.5905 42.8969 51.2025 42.8969C51.8089 42.8969 51.9343 41.2886 52.0436 32.1042L52.1724 21.3114H55.75C57.9591 21.3114 59.8417 21.6022 60.6709 22.0719C61.4782 22.5285 63.9672 25.9011 66.909 30.524L71.8038 38.2157L71.8384 41.5966L71.8727 44.9774L69.2335 45.1303C66.6472 45.2801 66.5711 45.2442 65.4321 43.3229C63.9572 40.8356 62.3867 39.9316 60.0655 40.2333C56.611 40.6827 54.3796 44.6752 55.6796 48.0816C57.1584 51.9555 61.2059 53.222 63.9705 50.676C64.7607 49.9483 65.5395 48.895 65.702 48.3354C65.9591 47.4491 66.44 47.318 69.4336 47.318C71.473 47.318 73.1024 47.0642 73.4408 46.6938C74.1031 45.9688 74.2044 40.498 73.5976 38.2121C73.3704 37.3559 70.9199 33.134 68.153 28.8299C62.2651 19.672 61.7044 19.2309 55.9628 19.2309H52.2028L52.0588 16.5002L51.9153 13.7695L34.5533 13.6333C21.4466 13.5303 17.0502 13.6515 16.6155 14.1274ZM4.43101 22.2929C3.68356 23.6167 5.73204 23.9319 14.1944 23.794C22.0643 23.6661 22.9329 23.5631 23.0769 22.7418C23.2247 21.9002 22.5395 21.8316 13.964 21.8316C8.86392 21.8316 4.57404 22.0391 4.43101 22.2929ZM54.0536 29.1134V34.8348H59.9933C65.1641 34.8348 65.933 34.7251 65.933 33.9881C65.933 32.798 63.4706 28.2297 61.4131 25.6025C59.7381 23.4643 59.5899 23.392 56.8676 23.392H54.0536V29.1134ZM59.8469 26.9028C60.5179 27.6893 61.6298 29.3277 62.3178 30.5438L63.569 32.7543H59.7619H55.9543V29.1134V25.4725H57.291C58.1368 25.4725 59.0752 25.9978 59.8469 26.9028ZM0.12117 28.5933C-0.0403899 28.8793 -0.0403899 29.3475 0.12117 29.6335C0.437161 30.1932 27.0636 30.3966 27.5692 29.8426C27.7255 29.6715 27.7384 29.2034 27.5977 28.8024C27.3867 28.2006 24.9904 28.0731 13.8785 28.0731C5.4151 28.0731 0.305538 28.2661 0.12117 28.5933ZM4.70614 35.0013C4.41058 35.3914 4.30889 35.8647 4.4809 36.053C4.65292 36.2413 8.94328 36.3952 14.0153 36.3952C22.5418 36.3952 23.2247 36.3266 23.0769 35.485C22.9329 34.6632 22.0591 34.5613 14.0804 34.4333C7.07726 34.3215 5.13237 34.4395 4.70614 35.0013ZM16.3565 40.3831C15.7383 41.0593 16.0224 46.1352 16.7138 46.763C17.102 47.1157 18.4606 47.3081 19.9165 47.2166C21.8429 47.0959 22.482 46.8478 22.5984 46.1774C22.7219 45.4658 22.3133 45.2666 20.4644 45.1371L18.1778 44.9774L18.0329 42.5068C17.898 40.2 17.2607 39.3933 16.3565 40.3831ZM25.812 41.6361C24.7928 42.616 24.032 43.9075 23.8505 44.9665C23.2651 48.3827 26.0087 52.0018 29.18 51.9971C30.9401 51.9945 33.4956 50.2687 34.1822 48.6194L34.7239 47.318H43.6373C52.9079 47.318 54.0536 47.1687 54.0536 45.962C54.0536 45.367 52.3582 45.2375 44.5624 45.2375H35.0708L34.3229 43.6542C32.5752 39.9545 28.5538 39.0011 25.812 41.6361ZM31.4186 43.1949C34.8631 46.1607 30.7239 51.9071 27.1287 49.1504C25.7417 48.0873 25.3739 46.0645 26.2359 44.2399C27.363 41.854 29.3872 41.4457 31.4186 43.1949ZM62.7802 43.1949C65.99 45.9584 62.9056 51.2091 59.0291 49.5806C57.8179 49.0719 56.9122 46.3235 57.4478 44.7824C58.391 42.0662 60.6785 41.3854 62.7802 43.1949Z" fill="#FF002E"/>
</svg>
