<svg width="47" height="47" viewBox="0 0 47 47" fill="none" xmlns="http://www.w3.org/2000/svg">
<path fill-rule="evenodd" clip-rule="evenodd" d="M21.6328 1.03631C21.1621 1.0813 20.4357 1.1769 19.6701 1.29468C17.8175 1.57962 15.5156 2.32678 13.6033 3.26386C10.12 4.9708 7.19341 7.48658 4.97642 10.6798C2.85768 13.7316 1.57341 17.1596 1.10289 21.0193C0.965043 22.1502 0.96585 24.7976 1.10445 25.958C1.5547 29.7282 2.69945 32.8748 4.75043 35.9798C8.43733 41.5612 14.4461 45.1946 21.1998 45.9265C22.1062 46.0247 24.858 46.0244 25.7601 45.926C30.4701 45.4121 34.6762 43.6006 38.1796 40.5771C39.3902 39.5325 40.8862 37.9018 41.7879 36.644C44.1976 33.2828 45.6299 29.3426 45.9347 25.236C46.2372 21.1594 45.488 17.2379 43.711 13.5968C41.3017 8.66003 37.0812 4.70289 32.0468 2.66041C30.993 2.23291 30.729 2.14026 29.8297 1.88212C28.6027 1.53 27.3035 1.26447 26.0776 1.11521C25.2177 1.01054 22.422 0.960925 21.6328 1.03631ZM25.5644 2.39188C30.8185 2.91024 35.7417 5.40517 39.2402 9.32239C42.1502 12.5807 43.912 16.4041 44.5235 20.7882C44.6661 21.8111 44.7 24.397 44.5863 25.5825C44.1562 30.0665 42.2851 34.2934 39.2206 37.7036C38.8804 38.0822 38.4142 38.5702 38.1845 38.7881L37.767 39.1842L37.7226 38.7517C37.4753 36.3421 36.6747 34.1066 35.3475 32.1198C33.4599 29.294 30.6131 27.2281 27.3364 26.3059C26.4746 26.0633 25.4608 25.8845 24.7054 25.8417C24.3965 25.8242 24.0321 25.798 23.8955 25.7835C23.741 25.7671 23.6605 25.7787 23.6824 25.8141C23.7049 25.8507 23.6692 25.8526 23.5822 25.8195C23.5079 25.7912 23.3181 25.7766 23.1604 25.787C23.0028 25.7974 22.6212 25.8211 22.3123 25.8397C21.0455 25.9159 19.4773 26.2867 18.1236 26.83C16.8111 27.3568 15.734 27.9862 14.6249 28.8746C12.9483 30.2176 11.7182 31.7233 10.7611 33.6039C10.0359 35.0289 9.60956 36.359 9.39199 37.8757C9.32509 38.342 9.25293 38.8243 9.23169 38.9477L9.19301 39.1718L8.5077 38.4856C5.47972 35.4534 3.47955 31.6845 2.67197 27.4892C2.45793 26.3772 2.46382 26.422 2.35275 25.0627C2.26415 23.9788 2.30496 21.997 2.43715 20.9615C2.94057 17.019 4.39478 13.5218 6.82703 10.4042C7.14215 10.0003 7.3626 9.66729 7.33957 9.62998C7.31458 9.58954 7.32491 9.58042 7.36659 9.60618C7.40803 9.63182 7.60615 9.4631 7.88057 9.16834C11.4591 5.32511 16.1744 2.92762 21.1421 2.42555C21.4914 2.39026 21.855 2.35242 21.9503 2.34145C22.4699 2.28172 24.7737 2.3139 25.5644 2.39188ZM22.8739 10.6821C20.0193 11.1261 17.7078 13.2861 17.0656 16.1095C16.9016 16.8309 16.8648 17.9652 16.9823 18.6798C17.4138 21.3035 19.1945 23.4183 21.6815 24.2605C21.9465 24.3502 22.1802 24.4199 22.201 24.4153C22.2219 24.4106 22.3558 24.4431 22.4987 24.4874C22.917 24.6171 24.8253 24.6013 25.4138 24.4631C27.0692 24.0746 28.589 23.0661 29.5997 21.6854C31.0003 19.7719 31.2721 17.0315 30.286 14.7649C29.9835 14.0696 29.4073 13.2435 28.8265 12.6726C27.8385 11.7013 26.8078 11.1289 25.4426 10.7934C24.8788 10.6549 23.4478 10.5929 22.8739 10.6821ZM25.3543 12.1212C27.2599 12.6448 28.7805 14.1265 29.3432 16.0079C30.1934 18.8501 28.6767 21.8972 25.8894 22.9471C24.8365 23.3436 23.5838 23.4137 22.528 23.135C21.1257 22.7649 19.946 21.9261 19.1699 20.7471C18.8044 20.1921 18.6263 19.8074 18.4168 19.1212C18.2792 18.6702 18.2643 18.5304 18.262 17.6691C18.2602 16.9503 18.2841 16.6185 18.3594 16.3196C18.5997 15.3656 19.0977 14.4574 19.7817 13.7257C20.5508 12.903 21.5532 12.3317 22.7007 12.0621C23.3496 11.9096 24.6931 11.9396 25.3543 12.1212ZM25.5551 27.2619C27.3545 27.5765 29.0378 28.2193 30.4647 29.1367C32.4697 30.4256 34.2249 32.4118 35.1849 34.478C35.5761 35.32 35.5895 35.3526 35.7754 35.9218C36.1662 37.1187 36.3884 38.32 36.4419 39.5258L36.4755 40.2831L36.1976 40.4842C33.0484 42.7636 29.8065 44.0764 26.1353 44.5589C25.1359 44.6903 22.9547 44.7351 21.8238 44.6474C20.305 44.5297 18.5458 44.1922 17.1302 43.7469C15.0905 43.1052 12.71 41.9015 11.0641 40.6793L10.5107 40.2684L10.5334 39.6404C10.7055 34.9009 13.3905 30.6774 17.5978 28.5282C19.1086 27.7565 20.5818 27.3248 22.3255 27.1428C23.0816 27.0639 24.7814 27.1266 25.5551 27.2619Z" fill="#FF1F48" stroke="#FF1F48"/>
</svg>
