<svg width="81" height="81" viewBox="0 0 81 81" fill="none" xmlns="http://www.w3.org/2000/svg">
<path d="M0 19C0 8.50659 8.50659 0 19 0H62C72.4934 0 81 8.50659 81 19V62C81 72.4934 72.4934 81 62 81H19C8.50659 81 0 72.4934 0 62V19Z" fill="#FF2943" fill-opacity="0.17"/>
<path d="M28.7498 24.3438C26.3205 24.3438 24.3435 26.3207 24.3435 28.75C24.3435 31.1793 26.3205 33.1562 28.7498 33.1562C31.1791 33.1562 33.156 31.1793 33.156 28.75C33.156 26.3207 31.1791 24.3438 28.7498 24.3438ZM52.2498 24.3438C49.8205 24.3438 47.8435 26.3207 47.8435 28.75C47.8435 31.1793 49.8205 33.1562 52.2498 33.1562C54.6791 33.1562 56.656 31.1793 56.656 28.75C56.656 26.3207 54.6791 24.3438 52.2498 24.3438ZM28.7498 27.2812C29.1393 27.2812 29.5129 27.436 29.7883 27.7114C30.0638 27.9869 30.2185 28.3605 30.2185 28.75C30.2185 29.1395 30.0638 29.5131 29.7883 29.7886C29.5129 30.064 29.1393 30.2188 28.7498 30.2188C28.3602 30.2188 27.9867 30.064 27.7112 29.7886C27.4358 29.5131 27.281 29.1395 27.281 28.75C27.281 28.3605 27.4358 27.9869 27.7112 27.7114C27.9867 27.436 28.3602 27.2812 28.7498 27.2812ZM52.2498 27.2812C52.6393 27.2812 53.0129 27.436 53.2883 27.7114C53.5638 27.9869 53.7185 28.3605 53.7185 28.75C53.7185 29.1395 53.5638 29.5131 53.2883 29.7886C53.0129 30.064 52.6393 30.2188 52.2498 30.2188C51.8602 30.2188 51.4867 30.064 51.2112 29.7886C50.9358 29.5131 50.781 29.1395 50.781 28.75C50.781 28.3605 50.9358 27.9869 51.2112 27.7114C51.4867 27.436 51.8602 27.2812 52.2498 27.2812ZM27.0578 34.625C26.7491 34.6244 26.4481 34.7212 26.1976 34.9015C25.947 35.0819 25.7598 35.3367 25.6625 35.6296L23.0613 43.4346C22.8655 44.0256 22.8619 44.6635 23.0511 45.2566C23.2403 45.8498 23.6125 46.3678 24.1144 46.7363L28.7498 50.0469V58.125H31.6873V50.0469C31.6873 49.126 31.2467 48.2462 30.4858 47.6778L25.8461 44.3672L27.9405 38.0898C28.4399 39.4043 29.2712 41.5296 29.2712 41.5296C29.6221 42.437 30.2622 43.2035 31.0924 43.7107L34.6248 46.375H46.3748L49.9086 43.7107C50.7371 43.2052 51.3765 42.4414 51.7284 41.5369C51.7284 41.5369 52.5479 39.4396 53.0649 38.0824L55.1799 44.3467L50.4917 47.6954C50.1267 47.9695 49.8302 48.3245 49.6256 48.7325C49.4209 49.1405 49.3137 49.5904 49.3123 50.0469V58.125H52.2498L52.2233 50.0674L56.9175 46.7157C57.9309 45.9549 58.3392 44.636 57.9382 43.4375L55.3371 35.6296C55.24 35.3366 55.0528 35.0817 54.8022 34.9013C54.5516 34.7208 54.2505 34.6242 53.9418 34.625H52.99C52.3262 34.625 51.1291 34.8571 50.5578 36.4022C50.1847 37.4259 48.9936 40.4633 48.9906 40.4706C48.8693 40.7842 48.6451 41.0473 48.3547 41.2168C48.3025 41.2461 48.2525 41.279 48.2048 41.3152L46.3748 42.6914V34.625H34.6248V42.6914L32.7947 41.3152C32.7463 41.2801 32.6963 41.2473 32.6449 41.2168C32.3534 41.0466 32.129 40.7817 32.0089 40.4662C32.0089 40.4662 30.8192 37.423 30.4418 36.3978C29.8734 34.8541 28.6734 34.625 28.0095 34.625H27.0578ZM37.5623 37.5625H43.4373V43.4375H37.5623V37.5625ZM23.2537 47.9275L22.9556 50.9355C22.9232 51.2601 22.8381 51.5729 22.7029 51.8681L19.8389 58.125H23.0701L25.3716 53.0901C25.6419 52.5026 25.8108 51.8755 25.8769 51.2248L26.0091 49.8941L23.2581 47.9333L23.2522 47.9275H23.2537ZM57.7458 47.9275L54.989 49.8956L55.1212 51.2292C55.1873 51.8755 55.3562 52.4997 55.6264 53.0901L57.9294 58.125H61.1607L58.2966 51.8681C58.1622 51.5731 58.0769 51.258 58.044 50.9355L57.7458 47.9275Z" fill="#FF002E"/>
<ellipse cx="22" cy="59" rx="3" ry="2" fill="#FF002E"/>
<ellipse cx="50" cy="59" rx="3" ry="2" fill="#FF002E"/>
<ellipse cx="31" cy="59" rx="3" ry="2" fill="#FF002E"/>
<ellipse cx="59" cy="59" rx="3" ry="2" fill="#FF002E"/>
</svg>
