<svg width="81" height="81" viewBox="0 0 81 81" fill="none" xmlns="http://www.w3.org/2000/svg">
<path d="M0 19C0 8.50659 8.50659 0 19 0H62C72.4934 0 81 8.50659 81 19V62C81 72.4934 72.4934 81 62 81H19C8.50659 81 0 72.4934 0 62V19Z" fill="#FF2943" fill-opacity="0.17"/>
<path d="M42.8502 40.5C43.7371 40.4994 44.606 40.7498 45.3566 41.2222C46.1072 41.6946 46.7088 42.3697 47.0919 43.1696L45.1955 45.0661C45.1613 44.4671 44.8993 43.9039 44.4633 43.4919C44.0272 43.0799 43.4501 42.8502 42.8502 42.85H26.4002C25.7769 42.85 25.1792 43.0976 24.7385 43.5383C24.2978 43.979 24.0502 44.5767 24.0502 45.2V48.725C24.0502 52.0315 27.7608 54.6 34.6252 54.6C36.1621 54.6 37.5392 54.4707 38.7565 54.2334L38.2794 56.1369C38.2324 56.3249 38.1972 56.5176 38.176 56.7056C37.0739 56.8654 35.8871 56.95 34.6252 56.95C26.607 56.95 21.7002 53.5519 21.7002 48.725V45.2C21.7002 43.9535 22.1954 42.758 23.0768 41.8766C23.9582 40.9952 25.1537 40.5 26.4002 40.5H42.8502Z" fill="#FF002E"/>
<path d="M54.1468 39.4377C54.5549 39.0296 55.0395 38.7058 55.5727 38.485C56.106 38.2641 56.6775 38.1504 57.2547 38.1504C57.8319 38.1504 58.4034 38.2641 58.9366 38.485C59.4699 38.7058 59.9544 39.0296 60.3625 39.4377C60.7707 39.8458 61.0944 40.3304 61.3153 40.8636C61.5362 41.3969 61.6499 41.9684 61.6499 42.5456C61.6499 43.1228 61.5362 43.6943 61.3153 44.2276C61.0944 44.7608 60.7707 45.2453 60.3625 45.6535L49.012 57.0016C48.3508 57.6631 47.5223 58.1326 46.615 58.3599L43.0947 59.2388C42.7449 59.3256 42.3785 59.3204 42.0312 59.2238C41.6839 59.1273 41.3675 58.9426 41.1126 58.6877C40.8577 58.4328 40.673 58.1163 40.5764 57.769C40.4799 57.4218 40.4747 57.0554 40.5614 56.7055L41.4403 53.1852C41.6683 52.2781 42.1359 51.4462 42.7986 50.7882L54.1491 39.4377H54.1468Z" fill="#FF002E"/>
<path d="M51.0752 38.1504C51.8468 38.1507 52.6109 37.999 53.3238 37.7038C54.0368 37.4087 54.6845 36.9759 55.2301 36.4303C55.7757 35.8847 56.2085 35.237 56.5036 34.524C56.7988 33.8111 56.9505 33.047 56.9502 32.2754C56.9502 31.1134 56.6056 29.9776 55.9601 29.0114C55.3145 28.0453 54.397 27.2923 53.3235 26.8476C52.2499 26.4029 51.0687 26.2866 49.929 26.5133C48.7894 26.74 47.7426 27.2995 46.9209 28.1211C46.0993 28.9428 45.5398 29.9896 45.3131 31.1292C45.0864 32.2689 45.2027 33.4501 45.6474 34.5237C46.0921 35.5972 46.8451 36.5147 47.8112 37.1603C48.7774 37.8058 49.9132 38.1504 51.0752 38.1504ZM51.0752 28.7504C52.0101 28.7504 52.9067 29.1218 53.5678 29.7828C54.2288 30.4439 54.6002 31.3405 54.6002 32.2754C54.6002 33.2103 54.2288 34.1069 53.5678 34.7679C52.9067 35.429 52.0101 35.8004 51.0752 35.8004C50.1403 35.8004 49.2437 35.429 48.5826 34.7679C47.9216 34.1069 47.5502 33.2103 47.5502 32.2754C47.5502 31.3405 47.9216 30.4439 48.5826 29.7828C49.2437 29.1218 50.1403 28.7504 51.0752 28.7504Z" fill="#FF002E"/>
<path d="M34.6254 21.7002C35.7055 21.7002 36.7751 21.9129 37.773 22.3263C38.7709 22.7396 39.6776 23.3455 40.4413 24.1092C41.2051 24.873 41.811 25.7797 42.2243 26.7776C42.6376 27.7755 42.8504 28.8451 42.8504 29.9252C42.8504 31.0053 42.6376 32.0749 42.2243 33.0728C41.811 34.0707 41.2051 34.9774 40.4413 35.7411C39.6776 36.5049 38.7709 37.1108 37.773 37.5241C36.7751 37.9375 35.7055 38.1502 34.6254 38.1502C32.444 38.1502 30.3519 37.2836 28.8094 35.7411C27.267 34.1987 26.4004 32.1066 26.4004 29.9252C26.4004 27.7438 27.267 25.6517 28.8094 24.1092C30.3519 22.5668 32.444 21.7002 34.6254 21.7002ZM34.6254 24.0502C33.0672 24.0502 31.5729 24.6692 30.4711 25.7709C29.3694 26.8727 28.7504 28.367 28.7504 29.9252C28.7504 31.4833 29.3694 32.9777 30.4711 34.0794C31.5729 35.1812 33.0672 35.8002 34.6254 35.8002C36.1835 35.8002 37.6779 35.1812 38.7796 34.0794C39.8814 32.9777 40.5004 31.4833 40.5004 29.9252C40.5004 28.367 39.8814 26.8727 38.7796 25.7709C37.6779 24.6692 36.1835 24.0502 34.6254 24.0502Z" fill="#FF002E"/>
</svg>
