<svg width="461" height="81" viewBox="0 0 461 81" fill="none" xmlns="http://www.w3.org/2000/svg">
<path d="M26.8539 22.9199L42.7006 31.474V48.582L26.8539 57.1361L11.0072 48.582L11.0072 31.474L26.8539 22.9199Z" fill="#161C33"/>
<path d="M28.5898 11.7637L51.5006 23.4838L43.3883 29.9242L28.1145 22.1108L28.5898 11.7637Z" fill="#FF002E"/>
<path d="M2.33691 23.7422L24.956 11.4685L25.6828 21.801L10.6034 29.9835L2.33691 23.7422Z" fill="#3F8CFF"/>
<path d="M53.7607 27.1113V52.8458L44.3325 48.5568V31.4004L53.7607 27.1113Z" fill="#3F8CFF"/>
<path d="M0 52.8457L0 27.1112L9.42827 31.4003L9.42827 48.5566L0 52.8457Z" fill="#00DB3A"/>
<path d="M24.415 68.4824L2.00982 55.8226L10.3822 49.724L25.319 58.1639L24.415 68.4824Z" fill="#3F8CFF"/>
<path d="M51.5537 56.8105L28.8776 68.9784L28.199 58.6427L43.3164 50.5307L51.5537 56.8105Z" fill="#FFC90A"/>
<path d="M82.4134 16.9588H65.8407V59H82.4134C94.6602 59 103.86 49.9825 103.86 37.9794C103.86 25.9764 94.6602 16.9588 82.4134 16.9588ZM82.1697 50.1043H75.2847V25.8545H82.1697C89.0547 25.8545 94.1727 31.0944 94.1727 37.9794C94.1727 44.8644 89.0547 50.1043 82.1697 50.1043ZM126.628 27.4387C123.277 27.4387 120.414 28.901 118.22 31.46V27.9261H109.325V59H118.22V44.4988C118.22 39.6854 121.206 36.5781 126.628 36.5781H127.969V27.4387H126.628ZM146.744 59.7312C156.31 59.7312 163.499 52.7243 163.499 43.4631C163.499 34.2018 156.31 27.195 146.744 27.195C137.178 27.195 129.988 34.2018 129.988 43.4631C129.988 52.7243 137.178 59.7312 146.744 59.7312ZM146.744 51.1401C142.357 51.1401 139.128 47.85 139.128 43.4631C139.128 39.0761 142.357 35.786 146.744 35.786C151.131 35.786 154.36 39.0761 154.36 43.4631C154.36 47.85 151.131 51.1401 146.744 51.1401ZM187.045 27.195C183.267 27.195 180.038 28.5963 177.662 31.0335V27.9261H168.766V70.5766H177.662V55.8926C180.038 58.3298 183.267 59.7312 187.045 59.7312C195.636 59.7312 202.034 52.7243 202.034 43.4631C202.034 34.2018 195.636 27.195 187.045 27.195ZM185.278 51.1401C180.891 51.1401 177.662 47.85 177.662 43.4631C177.662 39.0761 180.891 35.786 185.278 35.786C189.665 35.786 192.894 39.0761 192.894 43.4631C192.894 47.85 189.665 51.1401 185.278 51.1401ZM222.31 59.7312C231.876 59.7312 239.066 52.7243 239.066 43.4631C239.066 34.2018 231.876 27.195 222.31 27.195C212.744 27.195 205.555 34.2018 205.555 43.4631C205.555 52.7243 212.744 59.7312 222.31 59.7312ZM222.31 51.1401C217.923 51.1401 214.694 47.85 214.694 43.4631C214.694 39.0761 217.923 35.786 222.31 35.786C226.697 35.786 229.926 39.0761 229.926 43.4631C229.926 47.85 226.697 51.1401 222.31 51.1401ZM258.468 59.7312C267.364 59.7312 273.152 54.4912 273.152 46.5704V27.9261H264.257V45.3519C264.257 48.8248 261.941 51.1401 258.468 51.1401C254.995 51.1401 252.68 48.8248 252.68 45.3519V27.9261H243.784V46.5704C243.784 54.4912 249.634 59.7312 258.468 59.7312ZM299.236 36.0297V27.9261H291.254V20.249H282.359V27.9261H277.667V36.0297H282.359V48.8858C282.359 55.2833 285.71 59.7312 293.265 59.7312C295.641 59.7312 297.408 59.3046 299.236 58.3907V50.0434C298.079 50.6527 296.738 51.1401 295.154 51.1401C292.534 51.1401 291.254 49.7997 291.254 47.4234V36.0297H299.236Z" fill="#FF002E"/>
<path d="M317.686 61.1647C326.765 61.1647 334.503 56.1076 335.538 48.6743C336.879 39.2912 325.973 36.4884 322.134 35.6354C318.235 34.8433 313.421 33.2592 313.97 29.4816C314.396 26.3132 318.113 24.1807 322.743 24.1807C327.13 24.1807 331.152 26.0086 333.101 28.3848L337.245 22.9012C334.685 19.8547 329.872 17.6613 323.779 17.6613C314.579 17.6613 307.511 22.4747 306.536 29.7253C305.5 37.1586 311.715 40.8144 319.088 42.5813C323.231 43.4953 328.653 44.8357 328.044 48.9789C327.557 52.3909 323.353 54.6453 318.6 54.6453C313.665 54.6453 308.912 52.33 306.11 49.0398L301.601 54.5844C305.135 58.5448 311.289 61.1647 317.686 61.1647ZM352.289 35.5745H361.002L361.916 29.3597H353.142L354.299 21.317H347.475L346.318 29.3597H341.078L340.225 35.5745H345.465L343.21 51.3551C342.357 57.3871 345.038 61.1647 351.74 61.1647C353.995 61.1647 355.762 60.7382 357.59 59.8852L358.504 53.4877C357.163 54.097 355.762 54.5844 354.117 54.5844C351.192 54.5844 349.791 53.183 350.217 50.2584L352.289 35.5745ZM377.306 61.1647C386.75 61.1647 394.976 54.1579 396.255 44.8966C397.535 35.6354 391.381 28.6285 381.937 28.6285C372.432 28.6285 364.268 35.6354 362.988 44.8966C361.709 54.1579 367.801 61.1647 377.306 61.1647ZM378.22 54.5844C372.737 54.5844 369.264 50.3803 369.995 44.8966C370.787 39.413 375.479 35.2089 380.962 35.2089C386.507 35.2089 389.98 39.413 389.188 44.8966C388.456 50.3803 383.765 54.5844 378.22 54.5844ZM421.188 28.8723C417.106 28.8723 413.572 30.7001 410.769 33.9294L411.44 29.3597H404.616L400.229 60.4336H407.053L409.185 45.1404C410.038 39.5349 414.181 35.8791 420.213 35.8791H421.371L422.346 28.8723H421.188ZM440.956 28.6285C431.634 28.6285 423.592 35.5745 422.251 44.7748C420.972 54.097 427.247 61.1647 437.118 61.1647C442.967 61.1647 448.451 58.6666 452.228 54.7062L448.146 50.7458C446.014 53.0612 442.297 55.0109 438.154 55.0109C433.097 55.0109 429.746 52.0863 429.197 47.6385H454.422C454.666 46.7855 454.848 45.8106 454.97 44.9576C456.311 35.5745 450.279 28.6285 440.956 28.6285ZM440.043 34.7824C444.49 34.7824 447.659 37.6461 448.085 42.033H429.928C431.634 37.707 435.595 34.7824 440.043 34.7824Z" fill="white"/>
</svg>
