<svg width="225" height="40" viewBox="0 0 225 40" fill="none" xmlns="http://www.w3.org/2000/svg">
<path d="M13.9473 6.51343L25.1243 12.2311L21.1667 15.373L13.7153 11.5613L13.9473 6.51343Z" fill="#FF002E"/>
<path d="M1.13867 12.3572L12.1734 6.36949L12.5279 11.4102L5.17148 15.402L1.13867 12.3572Z" fill="#3F8CFF"/>
<path d="M26.2285 14.0007V26.5553L21.6289 24.4629V16.0932L26.2285 14.0007Z" fill="#3F8CFF"/>
<path d="M0 26.5554L0 14.0009L4.59957 16.0933L4.59957 24.463L0 26.5554Z" fill="#00DB3A"/>
<path d="M11.9121 34.1836L0.981742 28.0075L5.06618 25.0323L12.3531 29.1497L11.9121 34.1836Z" fill="#3F8CFF"/>
<path d="M25.1504 28.489L14.0878 34.4251L13.7568 29.3828L21.1318 25.4254L25.1504 28.489Z" fill="#FFC90A"/>
<path d="M13.1006 11.9561L20.8314 16.1291V24.4753L13.1006 28.6484L5.36979 24.4753L5.36979 16.1291L13.1006 11.9561Z" fill="#161C33"/>
<path d="M40.6152 8.97439H32.5302V29.4841H40.6152C46.5897 29.4841 51.0781 25.0849 51.0781 19.2293C51.0781 13.3736 46.5897 8.97439 40.6152 8.97439ZM40.4963 25.1444H37.1374V13.3141H40.4963C43.8551 13.3141 46.3519 15.8704 46.3519 19.2293C46.3519 22.5881 43.8551 25.1444 40.4963 25.1444ZM62.1854 14.087C60.5506 14.087 59.1536 14.8003 58.0835 16.0488V14.3248H53.7438V29.4841H58.0835V22.4098C58.0835 20.0615 59.54 18.5456 62.1854 18.5456H62.8394V14.087H62.1854ZM71.9986 29.8408C76.6653 29.8408 80.1728 26.4225 80.1728 21.9044C80.1728 17.3864 76.6653 13.9681 71.9986 13.9681C67.3319 13.9681 63.8245 17.3864 63.8245 21.9044C63.8245 26.4225 67.3319 29.8408 71.9986 29.8408ZM71.9986 25.6497C69.8585 25.6497 68.2831 24.0446 68.2831 21.9044C68.2831 19.7643 69.8585 18.1592 71.9986 18.1592C74.1388 18.1592 75.7142 19.7643 75.7142 21.9044C75.7142 24.0446 74.1388 25.6497 71.9986 25.6497ZM91.6596 13.9681C89.8167 13.9681 88.2413 14.6517 87.0821 15.8407V14.3248H82.7423V35.1317H87.0821V27.9682C88.2413 29.1572 89.8167 29.8408 91.6596 29.8408C95.8507 29.8408 98.9718 26.4225 98.9718 21.9044C98.9718 17.3864 95.8507 13.9681 91.6596 13.9681ZM90.7976 25.6497C88.6575 25.6497 87.0821 24.0446 87.0821 21.9044C87.0821 19.7643 88.6575 18.1592 90.7976 18.1592C92.9377 18.1592 94.5131 19.7643 94.5131 21.9044C94.5131 24.0446 92.9377 25.6497 90.7976 25.6497ZM108.864 29.8408C113.53 29.8408 117.038 26.4225 117.038 21.9044C117.038 17.3864 113.53 13.9681 108.864 13.9681C104.197 13.9681 100.69 17.3864 100.69 21.9044C100.69 26.4225 104.197 29.8408 108.864 29.8408ZM108.864 25.6497C106.724 25.6497 105.148 24.0446 105.148 21.9044C105.148 19.7643 106.724 18.1592 108.864 18.1592C111.004 18.1592 112.579 19.7643 112.579 21.9044C112.579 24.0446 111.004 25.6497 108.864 25.6497ZM126.503 29.8408C130.843 29.8408 133.667 27.2845 133.667 23.4204V14.3248H129.327V22.8259C129.327 24.5202 128.198 25.6497 126.503 25.6497C124.809 25.6497 123.68 24.5202 123.68 22.8259V14.3248H119.34V23.4204C119.34 27.2845 122.193 29.8408 126.503 29.8408ZM146.392 18.2781V14.3248H142.498V10.5795H138.158V14.3248H135.87V18.2781H138.158V24.5499C138.158 27.671 139.793 29.8408 143.479 29.8408C144.638 29.8408 145.5 29.6328 146.392 29.1869V25.1147C145.827 25.4119 145.173 25.6497 144.4 25.6497C143.122 25.6497 142.498 24.9958 142.498 23.8365V18.2781H146.392Z" fill="#FF002E"/>
<path d="M155.393 30.5403C159.822 30.5403 163.597 28.0732 164.102 24.4468C164.756 19.8693 159.435 18.502 157.563 18.0858C155.66 17.6994 153.312 16.9266 153.58 15.0837C153.788 13.538 155.601 12.4977 157.86 12.4977C160 12.4977 161.962 13.3894 162.913 14.5486L164.934 11.8734C163.686 10.3872 161.338 9.31716 158.365 9.31716C153.877 9.31716 150.429 11.6654 149.953 15.2026C149.448 18.8289 152.48 20.6124 156.076 21.4744C158.098 21.9202 160.743 22.5742 160.446 24.5954C160.208 26.26 158.157 27.3598 155.839 27.3598C153.431 27.3598 151.112 26.2303 149.745 24.6252L147.546 27.3301C149.27 29.2621 152.272 30.5403 155.393 30.5403ZM172.274 18.0561H176.524L176.97 15.0242H172.69L173.254 11.1006H169.925L169.361 15.0242H166.804L166.388 18.0561H168.944L167.845 25.7547C167.429 28.6974 168.736 30.5403 172.006 30.5403C173.106 30.5403 173.968 30.3322 174.86 29.9161L175.305 26.795C174.652 27.0923 173.968 27.3301 173.165 27.3301C171.739 27.3301 171.055 26.6464 171.263 25.2196L172.274 18.0561ZM184.478 30.5403C189.086 30.5403 193.098 27.122 193.723 22.6039C194.347 18.0858 191.345 14.6675 186.737 14.6675C182.1 14.6675 178.117 18.0858 177.493 22.6039C176.869 27.122 179.841 30.5403 184.478 30.5403ZM184.924 27.3301C182.249 27.3301 180.555 25.2791 180.911 22.6039C181.298 19.9287 183.587 17.8777 186.262 17.8777C188.967 17.8777 190.661 19.9287 190.275 22.6039C189.918 25.2791 187.629 27.3301 184.924 27.3301ZM205.886 14.7864C203.895 14.7864 202.171 15.6782 200.803 17.2535L201.13 15.0242H197.801L195.661 30.1836H198.99L200.03 22.7228C200.447 19.9882 202.468 18.2047 205.411 18.2047H205.975L206.451 14.7864H205.886ZM215.53 14.6675C210.982 14.6675 207.059 18.0561 206.405 22.5445C205.78 27.0923 208.842 30.5403 213.657 30.5403C216.511 30.5403 219.186 29.3216 221.029 27.3895L219.037 25.4574C217.997 26.587 216.184 27.5381 214.163 27.5381C211.696 27.5381 210.061 26.1114 209.793 23.9415H222.099C222.218 23.5254 222.307 23.0498 222.367 22.6336C223.021 18.0561 220.078 14.6675 215.53 14.6675ZM215.084 17.6697C217.254 17.6697 218.8 19.0667 219.008 21.2069H210.15C210.982 19.0964 212.914 17.6697 215.084 17.6697Z" fill="white"/>
</svg>
