<svg width="25" height="25" viewBox="0 0 25 25" fill="none" xmlns="http://www.w3.org/2000/svg">
<path d="M24.2837 12.2116C23.8858 12.2116 23.5675 12.5299 23.5675 12.9278V19.4431C23.5675 21.2152 22.1244 22.653 20.3576 22.653H4.6424C2.87033 22.653 1.43251 21.2099 1.43251 19.4431V12.8217C1.43251 12.4238 1.11418 12.1055 0.716256 12.1055C0.318336 12.1055 0 12.4238 0 12.8217V19.4431C0 22.0057 2.0851 24.0855 4.6424 24.0855H20.3576C22.9202 24.0855 25 22.0004 25 19.4431V12.9278C25 12.5352 24.6817 12.2116 24.2837 12.2116Z" fill="black"/>
<path d="M8.45138 6.69382L11.7833 3.3619V17.8939C11.7833 18.2919 12.1016 18.6102 12.4996 18.6102C12.8975 18.6102 13.2158 18.2919 13.2158 17.8939V3.3619L16.5477 6.69382C16.6857 6.83176 16.8714 6.90604 17.0518 6.90604C17.2375 6.90604 17.4179 6.83707 17.5558 6.69382C17.837 6.41262 17.837 5.96164 17.5558 5.68045L13.0036 1.12824C12.871 0.9956 12.6853 0.916016 12.4996 0.916016C12.3086 0.916016 12.1282 0.990294 11.9955 1.12824L7.44332 5.68045C7.16212 5.96164 7.16212 6.41262 7.44332 6.69382C7.71921 6.96971 8.17549 6.96971 8.45138 6.69382Z" fill="black"/>
</svg>
